<svg version="1.1" viewBox="0.0 0.0 960.0 540.0" fill="none" stroke="none" stroke-linecap="square" stroke-miterlimit="10" xmlns:xlink="http://www.w3.org/1999/xlink" xmlns="http://www.w3.org/2000/svg"><clipPath id="p.0"><path d="m0 0l960.0 0l0 540.0l-960.0 0l0 -540.0z" clip-rule="nonzero"/></clipPath><g clip-path="url(#p.0)"><path fill="#ffffff" d="m0 0l960.0 0l0 540.0l-960.0 0z" fill-rule="evenodd"/><path shape-rendering="crispEdges" fill="#4285f4" d="m354.01837 197.68767l40.32022 0l0 41.59842l-40.32022 0l0 -41.59842z" fill-rule="nonzero"/><path shape-rendering="crispEdges" fill="#4285f4" d="m313.69815 239.28609l40.32022 0l0 41.598434l-40.32022 0l0 -41.598434z" fill-rule="nonzero"/><path shape-rendering="crispEdges" fill="#4285f4" d="m394.3386 239.28609l40.32019 0l0 41.598434l-40.32019 0l0 -41.598434z" fill-rule="nonzero"/><path shape-rendering="crispEdges" fill="#4285f4" d="m354.01837 280.88452l40.32022 0l0 41.59842l-40.32022 0l0 -41.59842z" fill-rule="nonzero"/><path stroke="#ffffff" stroke-width="1.0" stroke-linecap="butt" d="m313.69815 155.59055l0 41.598434" fill-rule="nonzero"/><path stroke="#9e9e9e" stroke-width="1.0" stroke-linecap="butt" d="m313.69815 197.18898l0 125.79265" fill-rule="nonzero"/><path stroke="#ffffff" stroke-width="1.0" stroke-linecap="butt" d="m354.01837 155.59055l0 41.598434" fill-rule="nonzero"/><path stroke="#9e9e9e" stroke-width="1.0" stroke-linecap="butt" d="m354.01837 197.18898l0 125.79265" fill-rule="nonzero"/><path stroke="#9e9e9e" stroke-width="1.0" stroke-linecap="butt" d="m394.3386 155.59055l0 167.39108" fill-rule="nonzero"/><path stroke="#9e9e9e" stroke-width="1.0" stroke-linecap="butt" d="m434.65878 155.59055l0 167.39108" fill-rule="nonzero"/><path stroke="#ffffff" stroke-width="1.0" stroke-linecap="butt" d="m313.19946 156.08923l80.64044 0" fill-rule="nonzero"/><path stroke="#9e9e9e" stroke-width="1.0" stroke-linecap="butt" d="m393.8399 156.08923l41.317566 0" fill-rule="nonzero"/><path stroke="#9e9e9e" stroke-width="1.0" stroke-linecap="butt" d="m313.19946 197.68767l121.95801 0" fill-rule="nonzero"/><path stroke="#9e9e9e" stroke-width="1.0" stroke-linecap="butt" d="m313.19946 239.28609l121.95801 0" fill-rule="nonzero"/><path stroke="#9e9e9e" stroke-width="1.0" stroke-linecap="butt" d="m313.19946 280.88452l121.95801 0" fill-rule="nonzero"/><path stroke="#9e9e9e" stroke-width="1.0" stroke-linecap="butt" d="m313.19946 322.48294l121.95801 0" fill-rule="nonzero"/><path fill="#000000" fill-opacity="0.0" d="m362.66403 231.62993c0.44400024 -3.1412964 -1.1739502 -15.009201 2.6640015 -18.847778c3.8379517 -3.8385773 16.969818 -3.486435 20.36377 -4.183731" fill-rule="evenodd"/><path stroke="#ffffff" stroke-width="4.0" stroke-linejoin="round" stroke-linecap="butt" d="m362.66403 231.62993c0.44400024 -3.1412964 -1.1739502 -15.009201 2.6640015 -18.847778c3.8379517 -3.8385773 16.969818 -3.486435 20.36377 -4.183731" fill-rule="evenodd"/><path fill="#000000" fill-opacity="0.0" d="m321.19946 270.0c0.44400024 -3.1412964 -1.1739502 -15.009186 2.6640015 -18.847763c3.8379517 -3.8385925 16.969818 -3.4864502 20.36377 -4.183731" fill-rule="evenodd"/><path stroke="#ffffff" stroke-width="4.0" stroke-linejoin="round" stroke-linecap="butt" d="m321.19946 270.0c0.44400024 -3.1412964 -1.1739502 -15.009186 2.6640015 -18.847763c3.8379517 -3.8385925 16.969818 -3.4864502 20.36377 -4.183731" fill-rule="evenodd"/><path fill="#000000" fill-opacity="0.0" d="m401.1811 270.0c0.44400024 -3.1412964 -1.1739502 -15.009186 2.6640015 -18.847763c3.8379517 -3.8385925 16.969818 -3.4864502 20.36377 -4.183731" fill-rule="evenodd"/><path stroke="#ffffff" stroke-width="4.0" stroke-linejoin="round" stroke-linecap="butt" d="m401.1811 270.0c0.44400024 -3.1412964 -1.1739502 -15.009186 2.6640015 -18.847763c3.8379517 -3.8385925 16.969818 -3.4864502 20.36377 -4.183731" fill-rule="evenodd"/><path fill="#000000" fill-opacity="0.0" d="m362.66403 313.52493c0.44400024 -3.1412964 -1.1739502 -15.009186 2.6640015 -18.847778c3.8379517 -3.838562 16.969818 -3.4864197 20.36377 -4.183716" fill-rule="evenodd"/><path stroke="#ffffff" stroke-width="4.0" stroke-linejoin="round" stroke-linecap="butt" d="m362.66403 313.52493c0.44400024 -3.1412964 -1.1739502 -15.009186 2.6640015 -18.847778c3.8379517 -3.838562 16.969818 -3.4864197 20.36377 -4.183716" fill-rule="evenodd"/></g></svg>